<?xml version="1.0" encoding="utf-8"?>
<!-- Generator: Adobe Illustrator 22.0.1, SVG Export Plug-In . SVG Version: 6.00 Build 0)  -->
<svg version="1.1" id="Layer_1" xmlns="http://www.w3.org/2000/svg" xmlns:xlink="http://www.w3.org/1999/xlink" x="0px" y="0px"
	 width="72.4px" height="71.9px" viewBox="0 0 72.4 71.9" style="enable-background:new 0 0 72.4 71.9;" xml:space="preserve">
<style type="text/css">
	.st0{fill:#FFFFFF;}
</style>
<title>mattel_logo_stay_playful</title>
<path class="st0" d="M68.4,36.2l3.1-1.8l-0.7-0.5l-8.4,2.3l-3.6-13.8l2.4-0.6l3,11.7l4-1.1l2.9-2.5L67.5,28l2.6-2.8l-3.8-1.1
	l2.4-3.1l-3.9-0.3l1.9-3.4l-4.1-0.2l1.3-3.6l-3.8,0.4l1-3.8l-3.9,1l0.3-4.1L54,8.7l-0.1-4l-3.3,1.9l-0.7-3.9L46.8,5l-1.1-3.8
	l-2.9,2.8l-1.6-3.5l-2.3,3L36.9,0l-2,3.3l-2.5-3l-1.6,3.4l-2.7-2.8l-1.2,3.7l-3.1-2.5L23.2,6l-3.4-2.1l-0.3,3.8l-3.7-1.6l0.3,4
	l-3.8-1.1l0.9,3.7l-4-0.3l1.2,3.6l-4.1-0.1l1.8,3.6L4,19.8l2.1,3.3L2.2,24l2.6,3L1,28.2l3,2.7l-3.5,1.7L3.6,35l-3.3,2.1l2.1,1.1
	l-0.2-0.9l3.7-0.9l5.8,9.3l0.5-11.1l3.8-0.9l3.6,13.8l-2.4,0.7l-2.7-10.5l-0.8,11.4l-2.3,0.6l-5.8-9.3l2.5,10.1l-0.7,0.2l-2,3.6
	l4,0.2l-1.3,3.7l3.9-0.5L11,61.5l4-1l-0.5,3.9l3.7-1.5l0,4l3.2-2l0.5,4l3.2-2.5l1.2,3.9l2.8-2.9l1.6,3.7l2.4-3l2.1,3.4l2-3.2l2.6,3
	l1.4-3.5l2.9,2.8l1.2-3.7l3.1,2.3l0.7-3.7l3.3,2.1l0.1-4.1l3.6,1.5l-0.3-3.8l3.9,1.1L59,58.4l3.8,0.8l-1.2-3.7l3.9,0.1L63.8,52
	l4.1,0l-2.2-3.7l3.7-0.8l-2.4-3.1l3.7-1.2l-2.9-3l3.5-1.6L68.4,36.2z M30.2,44.7l-1.6-2.5l-5.7,1.5l-0.2,2.9l-2.4,0.6l1.1-15.1
	l3.1-0.9L32.8,44L30.2,44.7z M45.4,40.6L43,41.2l-3.1-11.6l-6.1,1.6l3,11.7l-2.4,0.6l-3-11.7L27,33.1l-0.6-2.2l19.4-5.2l0.6,2.1
	L42.3,29L45.4,40.6z M50.6,39.2l-3.6-13.8l10.2-2.8l0.6,2.2l-7.9,2.1l0.9,3.5l6.8-1.9l0.6,2.1l-6.8,1.9l1,3.9l7.9-2.1l0.5,2.2
	L50.6,39.2z"/>
<polygon class="st0" points="23.1,41.3 27.3,40.1 23.5,34 "/>
<path class="st0" d="M71.8,65.1c0,1.6-1.2,3-2.8,3c-1.6,0-3-1.2-3-2.8s1.2-3,2.8-3c0,0,0.1,0,0.1,0C70.4,62.3,71.7,63.5,71.8,65.1
	C71.8,65.1,71.8,65.1,71.8,65.1z M66.7,65.1c0,1.2,0.9,2.2,2.1,2.3c0,0,0.1,0,0.1,0c1.2,0,2.2-1,2.2-2.2c0,0,0,0,0-0.1
	c0.1-1.2-0.9-2.2-2.1-2.3c-1.2-0.1-2.2,0.9-2.3,2.1C66.7,65,66.7,65.1,66.7,65.1z M68.4,66.6h-0.7v-2.8c0.4-0.1,0.7-0.1,1.1-0.1
	c0.3,0,0.7,0,1,0.2c0.2,0.2,0.3,0.4,0.3,0.6c0,0.3-0.3,0.6-0.6,0.7v0c0.3,0.1,0.5,0.4,0.5,0.7c0,0.2,0.1,0.5,0.2,0.7h-0.7
	c-0.1-0.2-0.2-0.5-0.2-0.7c-0.1-0.3-0.2-0.5-0.6-0.5h-0.3L68.4,66.6z M68.4,65h0.3c0.4,0,0.7-0.1,0.7-0.4c0-0.3-0.2-0.4-0.6-0.4
	c-0.1,0-0.2,0-0.4,0V65z"/>
<polyline class="st0" points="2.9,39.8 0.6,41.7 3.6,42.8 2.9,39.8 "/>
<polyline class="st0" points="3.9,43.9 1.8,46 4.7,46.9 3.9,43.9 "/>
</svg>
